<svg xmlns="http://www.w3.org/2000/svg" width="138.255" height="138.257" viewBox="0 0 138.255 138.257">
  <g id="flower" transform="translate(-0.004 0)">
    <g id="Group_1" data-name="Group 1" transform="translate(0.004 0)">
      <path id="Path_6" data-name="Path 6" d="M137.606,67.552,126.679,56.625A33.379,33.379,0,0,0,117.184,50,35.553,35.553,0,0,0,120.42,35.2V20.071a2.23,2.23,0,0,0-2.23-2.23H103.056a35.553,35.553,0,0,0-14.793,3.233,33.379,33.379,0,0,0-6.629-9.495L70.707.653a2.23,2.23,0,0,0-3.153,0L56.627,11.579A33.379,33.379,0,0,0,50,21.074a35.556,35.556,0,0,0-14.789-3.233H20.075a2.23,2.23,0,0,0-2.23,2.23V35.2A35.554,35.554,0,0,0,21.078,50a33.38,33.38,0,0,0-9.495,6.629L.657,67.554a2.23,2.23,0,0,0,0,3.153L11.583,81.634a33.379,33.379,0,0,0,9.495,6.629,35.556,35.556,0,0,0-3.233,14.789v15.134a2.23,2.23,0,0,0,2.23,2.23H35.209A35.553,35.553,0,0,0,50,117.183a33.379,33.379,0,0,0,6.629,9.495L67.558,137.6a2.23,2.23,0,0,0,3.153,0l10.926-10.926a33.379,33.379,0,0,0,6.629-9.495,35.551,35.551,0,0,0,14.789,3.233H118.19a2.23,2.23,0,0,0,2.23-2.23V103.052a35.554,35.554,0,0,0-3.233-14.793,33.379,33.379,0,0,0,9.495-6.629L137.608,70.7A2.23,2.23,0,0,0,137.606,67.552ZM89.9,25.231a31.084,31.084,0,0,1,13.152-2.93h12.9V35.2a31.085,31.085,0,0,1-2.928,13.156,33.493,33.493,0,0,0-10.006-1.532h-.892a33.317,33.317,0,0,0-13.6,2.9,33.317,33.317,0,0,0,2.9-13.6v-.892A33.485,33.485,0,0,0,89.9,25.231Zm12.231,26.059h.892a29.089,29.089,0,0,1,7.791,1.079,31.469,31.469,0,0,1-4.014,4.906l-.473.473a31.025,31.025,0,0,1-22.076,9.143l-9.74.009,7.118-7.118A28.8,28.8,0,0,1,102.135,51.289ZM86.971,35.234h0v.892a28.8,28.8,0,0,1-8.491,20.5l-7.118,7.12V53.994A31.025,31.025,0,0,1,80.5,31.918l.473-.473a31.484,31.484,0,0,1,4.906-4.014A29.087,29.087,0,0,1,86.971,35.234Zm-27.187-20.5,9.348-9.348,9.348,9.348a28.919,28.919,0,0,1,5.849,8.46,35.823,35.823,0,0,0-6.5,5.1l-.473.473a35.531,35.531,0,0,0-8.224,12.878,35.533,35.533,0,0,0-8.222-12.875l-.473-.473a35.828,35.828,0,0,0-6.5-5.1A28.927,28.927,0,0,1,59.785,14.732Zm-8.491,20.5a29.088,29.088,0,0,1,1.079-7.791,31.468,31.468,0,0,1,4.906,4.014l.473.473a31.025,31.025,0,0,1,9.143,22.076v9.751l-7.118-7.118a28.8,28.8,0,0,1-8.483-20.513Zm5.336,24.547,7.12,7.118H54a31.025,31.025,0,0,1-22.076-9.143l-.473-.473a31.483,31.483,0,0,1-4.014-4.906,29.109,29.109,0,0,1,7.8-1.088h.892A28.8,28.8,0,0,1,56.629,59.781ZM22.3,22.3h12.9a31.085,31.085,0,0,1,13.156,2.928,33.492,33.492,0,0,0-1.532,10.006v.892a33.317,33.317,0,0,0,2.9,13.6,33.317,33.317,0,0,0-13.6-2.9h-.892a33.494,33.494,0,0,0-10,1.527A31.083,31.083,0,0,1,22.3,35.2V22.3ZM14.736,78.476,5.388,69.128l9.348-9.348a28.919,28.919,0,0,1,8.46-5.849,35.823,35.823,0,0,0,5.1,6.5l.473.473a35.531,35.531,0,0,0,12.878,8.224A35.533,35.533,0,0,0,28.771,77.35l-.473.473a35.828,35.828,0,0,0-5.1,6.5A28.926,28.926,0,0,1,14.736,78.476Zm33.625,34.55a31.083,31.083,0,0,1-13.152,2.93H22.3v-12.9A31.085,31.085,0,0,1,25.232,89.9a33.493,33.493,0,0,0,10.006,1.532h.892a33.317,33.317,0,0,0,13.6-2.9,33.317,33.317,0,0,0-2.9,13.6v.892A33.5,33.5,0,0,0,48.361,113.026ZM36.13,86.967h-.892a29.1,29.1,0,0,1-7.791-1.079,31.468,31.468,0,0,1,4.014-4.906l.473-.473a31.025,31.025,0,0,1,22.076-9.143l9.74-.009-7.118,7.118A28.8,28.8,0,0,1,36.13,86.967Zm15.163,16.055v-.892a28.8,28.8,0,0,1,8.491-20.5l7.118-7.12v9.751a31.025,31.025,0,0,1-9.143,22.076l-.473.473a31.468,31.468,0,0,1-4.906,4.014A29.106,29.106,0,0,1,51.293,103.023Zm27.187,20.5-9.348,9.348-9.348-9.348a28.921,28.921,0,0,1-5.849-8.449,35.821,35.821,0,0,0,6.5-5.111l.473-.473a35.535,35.535,0,0,0,8.224-12.878,35.533,35.533,0,0,0,8.222,12.875l.473.473a35.823,35.823,0,0,0,6.5,5.111A28.917,28.917,0,0,1,78.48,123.524Zm8.491-20.5a29.1,29.1,0,0,1-1.079,7.791,31.466,31.466,0,0,1-4.906-4.014l-.473-.473a31.025,31.025,0,0,1-9.143-22.076v-9.74l7.118,7.118a28.8,28.8,0,0,1,8.483,20.5ZM81.635,78.476l-7.12-7.118h9.751A31.025,31.025,0,0,1,106.343,80.5l.473.473a31.484,31.484,0,0,1,4.014,4.906,29.1,29.1,0,0,1-7.8,1.088h-.892A28.8,28.8,0,0,1,81.635,78.476Zm34.325,37.48h-12.9A31.085,31.085,0,0,1,89.9,113.028a33.492,33.492,0,0,0,1.532-10.006v-.892a33.317,33.317,0,0,0-2.9-13.6,33.317,33.317,0,0,0,13.6,2.9h.892a33.494,33.494,0,0,0,10-1.527,31.083,31.083,0,0,1,2.93,13.152Zm7.568-37.48a28.921,28.921,0,0,1-8.449,5.849,35.812,35.812,0,0,0-5.111-6.5l-.473-.473a35.535,35.535,0,0,0-12.878-8.224,35.533,35.533,0,0,0,12.875-8.222l.473-.473a35.825,35.825,0,0,0,5.111-6.5,28.918,28.918,0,0,1,8.449,5.849l9.35,9.348Z" transform="translate(-0.004 0)" fill="#f5f5f5"/>
    </g>
  </g>
</svg>
